<svg viewBox="0 0 801 175" fill="none" xmlns="http://www.w3.org/2000/svg">
<path d="M35.1 35V0H140.1V35H35.1ZM0.100006 140V35H35.1V140H0.100006ZM105.1 140V105H70.1V70H140.1V140H105.1ZM35.1 175V140H105.1V175H35.1ZM165.3 175V0H270.3V35H305.3V70H270.3V140H305.3V175H270.3V140H235.3V105H200.3V175H165.3ZM200.3 70H268.9V35H200.3V70ZM330.5 175V35H365.5V0H435.5V35H470.5V175H435.5V105H365.5V175H330.5ZM365.5 70H435.5V36.4H365.5V70ZM495.7 175V0H600.7V35H635.7V70H600.7V105H530.7V175H495.7ZM530.7 70H599.3V35H530.7V70ZM660.9 175V0H765.9V35H800.9V70H765.9V105H695.9V175H660.9ZM695.9 70H764.5V35H695.9V70Z" fill="url(#paint0_linear_38_3)"/>
<defs>
<linearGradient id="paint0_linear_38_3" x1="-35" y1="206" x2="836" y2="206" gradientUnits="userSpaceOnUse">
<stop stop-color="#EE0979"/>
<stop offset="1" stop-color="#FF6A00"/>
</linearGradient>
</defs>
</svg>
