<svg xmlns="http://www.w3.org/2000/svg"  viewBox="0 0 24 24" width="24px" height="24px"><path d="M19,3h-5h0c1.657,0,3,1.343,3,3v2.369c0,0.76-0.758,1.278-1.471,1.016C14.968,9.179,14.374,9,14,9c-1.657,0-3,1.343-3,3	s1.343,3,3,3c0.374,0,0.968-0.179,1.529-0.385C16.242,14.353,17,14.871,17,15.631V18c0,1.657-1.343,3-3,3h0h5c1.657,0,3-1.343,3-3V6	C22,4.343,20.657,3,19,3z"/><path d="M5,3C3.343,3,2,4.343,2,6v2.369c0,0.76,0.758,1.278,1.471,1.016C4.032,9.179,4.626,9,5,9	c1.657,0,3,1.343,3,3s-1.343,3-3,3c-0.374,0-0.968-0.179-1.529-0.385C2.758,14.353,2,14.871,2,15.631V18c0,1.657,1.343,3,3,3h13V3H5	z" opacity=".35"/></svg>