<svg xmlns="http://www.w3.org/2000/svg"  viewBox="0 0 24 24" width="24px" height="24px"><path d="M5.081,13h0.577c0.403,0,0.605-0.486,0.322-0.772l-2.014-2.034c-0.256-0.259-0.675-0.259-0.931,0L1.02,12.228	C0.737,12.514,0.939,13,1.342,13h0.712c0.219,2.161,1.135,4.21,2.622,5.811c0.728,0.783,2.036,0.512,2.455-0.472	c0.229-0.539,0.124-1.162-0.273-1.592C5.896,15.704,5.283,14.392,5.081,13z"/><path d="M18.338,16.87c-0.539-0.229-1.162-0.124-1.592,0.273c-1.042,0.961-2.354,1.574-3.746,1.776v-0.577	c0-0.403-0.486-0.605-0.772-0.322l-2.034,2.014c-0.259,0.256-0.259,0.675,0,0.931l2.034,2.015C12.514,23.263,13,23.061,13,22.658	v-0.712c2.161-0.219,4.21-1.135,5.811-2.622C19.594,18.597,19.322,17.288,18.338,16.87z" opacity=".35"/><path d="M22.658,11h-0.712c-0.219-2.161-1.135-4.21-2.622-5.811c-0.728-0.783-2.036-0.512-2.455,0.472v0	c-0.229,0.539-0.124,1.162,0.273,1.592c0.961,1.042,1.574,2.354,1.776,3.746h-0.577c-0.403,0-0.605,0.486-0.322,0.772l2.014,2.034	c0.256,0.259,0.675,0.259,0.931,0l2.015-2.034C23.263,11.486,23.061,11,22.658,11z"/><path d="M11,5.658c0,0.403,0.486,0.605,0.772,0.322l2.034-2.014c0.259-0.256,0.259-0.675,0-0.931L11.772,1.02	C11.486,0.737,11,0.939,11,1.342v0.712C8.839,2.273,6.79,3.189,5.189,4.675C4.406,5.403,4.678,6.712,5.662,7.13	c0.539,0.229,1.162,0.124,1.592-0.273C8.296,5.896,9.608,5.283,11,5.081V5.658z" opacity=".35"/></svg>