<svg xmlns="http://www.w3.org/2000/svg"  viewBox="0 0 24 24" width="24px" height="24px"><path d="M18,21H6c-1.657,0-3-1.343-3-3V6c0-1.657,1.343-3,3-3h12c1.657,0,3,1.343,3,3v12	C21,19.657,19.657,21,18,21z" opacity=".35"/><path d="M17,9H7C6.448,9,6,8.552,6,8V7c0-0.552,0.448-1,1-1h10c0.552,0,1,0.448,1,1v1C18,8.552,17.552,9,17,9z"/><path d="M10,18H7c-0.552,0-1-0.448-1-1v-5c0-0.552,0.448-1,1-1h3c0.552,0,1,0.448,1,1v5C11,17.552,10.552,18,10,18z"/><path d="M17,18h-3c-0.552,0-1-0.448-1-1v-5c0-0.552,0.448-1,1-1h3c0.552,0,1,0.448,1,1v5C18,17.552,17.552,18,17,18z"/></svg>