<svg xmlns="http://www.w3.org/2000/svg"  viewBox="0 0 24 24" width="24px" height="24px"><path d="M19.3,3.088l-6.885,0.405c-1.118,0.066-1.634,1.422-0.842,2.214l7.226,7.226c0.792,0.792,2.148,0.276,2.214-0.842	l0.405-6.885C21.488,4.009,20.498,3.018,19.3,3.088z"/><path d="M8.115,20.634l-4.243-4.243c-0.781-0.781-0.781-2.047,0-2.828l8.485-8.485	l7.071,7.071l-8.485,8.485C10.163,21.415,8.896,21.415,8.115,20.634z" opacity=".35"/><path d="M7.408,19.926l-2.121-2.121l-1.768,1.768c-0.586,0.586-0.586,1.536,0,2.121l0,0c0.586,0.586,1.536,0.586,2.121,0	L7.408,19.926z"/><polygon points="19.429,12.148 18.722,12.855 6.418,11.017 9.063,8.372 16.784,9.504"/><path d="M15.575,16.002l-2.645,2.645L4.962,17.48l-1.089-1.089c-0.58-0.58-0.728-1.45-0.438-2.164L15.575,16.002z"/></svg>